<svg width="156" height="609" viewBox="0 0 156 609" fill="none" xmlns="http://www.w3.org/2000/svg">
<g filter="url(#filter0_d_26_28)">
<mask id="mask0_26_28" style="mask-type:luminance" maskUnits="userSpaceOnUse" x="2" y="37" width="51" height="208">
<path d="M2.70745 39.6298L12.1848 244.05L51.9051 242.209L42.4278 37.7882L2.70745 39.6298Z" fill="white" stroke="white"/>
<path d="M39.3304 41.1179C40.389 41.7686 40.7197 43.1543 40.069 44.2129C39.4183 45.2716 38.0326 45.6023 36.9739 44.9516C35.9153 44.3008 35.5846 42.9151 36.2353 41.8565C36.886 40.7978 38.2717 40.4671 39.3304 41.1179Z" fill="black" stroke="black" stroke-width="1.5" stroke-linejoin="round"/>
</mask>
<g mask="url(#mask0_26_28)">
<path d="M48.963 239.78C0.863351 175.682 -2.37347 109.505 39.2525 41.2474" stroke="white" stroke-width="2"/>
</g>
<path d="M39.1995 41.3309C40.611 42.1985 41.052 44.0461 40.1844 45.4576C39.3168 46.8692 37.4692 47.3101 36.0576 46.4425C34.6461 45.5749 34.2052 43.7273 35.0728 42.3157C35.9404 40.9042 37.788 40.4633 39.1995 41.3309Z" stroke="white" stroke-width="2" stroke-linecap="round" stroke-linejoin="round"/>
<path d="M46.4992 236.599C97.5345 298.769 103.509 365.004 64.4237 435.304" stroke="white" stroke-width="2"/>
</g>
<g clip-path="url(#clip0_26_28)">
<g clip-path="url(#clip1_26_28)">
<g clip-path="url(#clip2_26_28)">
<path fill-rule="evenodd" clip-rule="evenodd" d="M71.487 14.6852L71.2119 13.945C61.6619 6.77917 58.7551 15.1734 59.8059 20.7704C60.166 24.3147 61.2634 27.7445 63.0277 30.8395C69.644 42.6916 85.5323 45.6807 82.486 31.5174L82.0826 30.2263L87.2339 23.5531C92.2475 26.8595 98.6641 27.3694 96.3772 17.2759C91.4002 5.51991 86.4459 2.82297 83.679 4.12476C81.6199 5.09752 80.9076 8.3659 81.5323 11.4456L71.487 14.6852Z" fill="#ED5F72"/>
<path fill-rule="evenodd" clip-rule="evenodd" d="M64.9717 33.6192L61.6294 28.1811L40.9268 43.5608L64.9717 33.6192Z" fill="#E6E6E6"/>
<path fill-rule="evenodd" clip-rule="evenodd" d="M88.026 23.6564C85.4797 26.9625 82.7761 30.2069 80.3193 33.571C80.266 33.6504 80.1972 33.7183 80.1171 33.7706C80.0369 33.823 79.9471 33.8587 79.8529 33.8757C79.7588 33.8926 79.6621 33.8905 79.5688 33.8694C79.4754 33.8483 79.3873 33.8087 79.3095 33.7529C79.1505 33.6377 79.0427 33.465 79.0091 33.2715C78.9755 33.078 79.0188 32.8791 79.1297 32.7171C81.5991 29.3345 84.3128 26.0769 86.8718 22.755C86.9281 22.6776 86.9995 22.6123 87.0817 22.5631C87.1638 22.514 87.255 22.4818 87.3499 22.4687C87.4447 22.4556 87.5412 22.4618 87.6336 22.4868C87.726 22.5119 87.8124 22.5553 87.8876 22.6145C88.0398 22.7362 88.1392 22.9119 88.1649 23.1051C88.1907 23.2982 88.1409 23.4939 88.0259 23.6512" fill="#540C2C"/>
<path fill-rule="evenodd" clip-rule="evenodd" d="M81.6438 12.4439C77.1376 13.8361 72.6164 15.0103 68.1386 16.5214C65.3467 21.4101 73.5952 35.04 79.3822 32.4858C79.4667 32.4403 79.5594 32.4122 79.6549 32.4032C79.7504 32.3942 79.8467 32.4045 79.9382 32.4334C80.0296 32.4623 80.1144 32.5092 80.1874 32.5714C80.2604 32.6336 80.3201 32.7099 80.3631 32.7956C80.4538 32.9693 80.473 33.1714 80.4166 33.359C80.3603 33.5466 80.2329 33.7048 80.0616 33.7998C72.2863 37.2291 63.0839 20.69 67.0923 15.4384C67.5606 14.8285 79.3837 11.599 81.2044 11.0418C81.2959 11.0126 81.3923 11.002 81.488 11.0106C81.5837 11.0192 81.6767 11.0467 81.7616 11.0917C81.8465 11.1367 81.9216 11.1981 81.9825 11.2724C82.0433 11.3468 82.0888 11.4325 82.1161 11.5246C82.1753 11.7109 82.159 11.9129 82.0707 12.0873C81.9824 12.2616 81.8292 12.3943 81.6441 12.4569" fill="#540C2C"/>
<path fill-rule="evenodd" clip-rule="evenodd" d="M82.7435 3.74903C82.7958 3.69851 82.8553 3.65611 82.9202 3.62325C82.9688 3.5968 83.0209 3.57736 83.0749 3.56549C90.8366 0.61199 97.5805 14.7511 97.5512 21.0278C97.5338 24.7315 95.0791 27.1859 91.5045 26.4928C84.8979 25.2125 76.4194 8.36477 82.7435 3.74903ZM83.5712 4.95084C79.2641 7.81243 84.5394 18.5253 86.9714 21.5315C88.7473 23.7221 92.8144 27.0064 95.3788 23.8195C98.042 20.5057 93.3259 11.325 91.0875 8.50723C89.2198 6.15216 86.6611 3.68398 83.5712 4.95084Z" fill="#540C2C"/>
<path fill-rule="evenodd" clip-rule="evenodd" d="M70.7913 14.8503C67.3253 10.5972 60.3323 10.3618 60.3135 17.2776C60.2875 26.1141 64.4715 34.6976 72.3291 38.8005C78.035 41.7783 83.3 39.8741 81.9182 32.7142C81.825 32.0449 81.6053 31.3994 81.2709 30.8122C81.1518 30.6568 81.0978 30.4611 81.1205 30.2666C81.1432 30.0721 81.2407 29.894 81.3924 29.7702C81.4668 29.71 81.5526 29.6655 81.6447 29.6391C81.7367 29.6128 81.8331 29.6052 81.9281 29.6168C82.0231 29.6284 82.1148 29.659 82.1978 29.7067C82.2808 29.7545 82.3533 29.8184 82.4111 29.8948C84.0368 33.1228 84.3228 38.3042 80.9915 40.5947C75.0977 44.6507 66.0543 36.9754 62.8471 31.9087C60.2547 27.804 56.7617 16.5581 60.3832 12.3332C63.5251 8.66657 69.1562 10.5362 71.9717 13.9892C72.0867 14.1502 72.1335 14.35 72.102 14.5453C72.0705 14.7406 71.9632 14.9156 71.8034 15.0322C71.726 15.0884 71.638 15.1285 71.5448 15.1502C71.4517 15.1719 71.3551 15.1747 71.2608 15.1584C71.1665 15.1422 71.0764 15.1073 70.9958 15.0557C70.9152 15.0041 70.8457 14.9369 70.7915 14.8581" fill="#540C2C"/>
<path fill-rule="evenodd" clip-rule="evenodd" d="M61.7462 29.4339C56.1936 33.6517 49.9701 37.4728 44.3415 41.661C51.0368 38.6645 57.7323 35.6809 64.428 32.7104C64.516 32.6721 64.6108 32.6517 64.7068 32.6506C64.8027 32.6494 64.8979 32.6674 64.9868 32.7036C65.0757 32.7398 65.1565 32.7934 65.2243 32.8613C65.2922 32.9291 65.3458 33.0099 65.382 33.0988C65.4585 33.2787 65.4616 33.4814 65.3905 33.6635C65.3195 33.8457 65.18 33.9928 65.0019 34.0733C57.5782 37.3725 50.1574 40.6819 42.7395 44.0017C42.1473 44.2738 38.6053 46.4257 38.7263 44.6041C38.7238 44.482 38.8909 44.2706 39.1658 43.9895L39.207 43.9705C42.1855 40.9517 58.4666 30.0732 60.8617 28.2541C60.9369 28.195 61.0232 28.1516 61.1155 28.1265C61.2078 28.1013 61.3042 28.095 61.399 28.1079C61.4938 28.1207 61.585 28.1524 61.6673 28.2012C61.7496 28.2499 61.8213 28.3147 61.8781 28.3917C61.9961 28.5484 62.0483 28.7449 62.0237 28.9396C61.9991 29.1342 61.8995 29.3115 61.7462 29.4339Z" fill="#540C2C"/>
</g>
</g>
</g>
<g clip-path="url(#clip3_26_28)">
<g clip-path="url(#clip4_26_28)">
<g clip-path="url(#clip5_26_28)">
<path d="M85.1323 475.807L80.2612 453.364C78.0547 443.198 68.0299 436.743 57.8641 438.95C47.6983 441.156 41.2516 451.186 43.458 461.352L48.3292 483.795" stroke="#100F0F" stroke-width="4.8742" stroke-miterlimit="10" stroke-linecap="round" stroke-linejoin="round"/>
<path d="M144.424 579.563C145.113 582.74 143.071 585.905 139.887 586.596L46.653 606.832C43.4758 607.522 40.3058 605.488 39.6162 602.311L24.2888 479.39C23.5992 476.212 25.6395 473.041 28.8167 472.351L100.368 456.821C103.552 456.13 106.716 458.172 107.406 461.349L144.424 579.563Z" fill="#F79326"/>
<path d="M153.886 577.509C154.575 580.686 152.534 583.851 149.356 584.541L56.1151 604.778C52.9379 605.468 49.7679 603.435 49.0783 600.257L33.7578 477.334C33.0682 474.157 35.1015 470.987 38.2858 470.296L109.837 454.766C113.014 454.076 116.185 456.117 116.875 459.294L153.886 577.509Z" fill="#F9AF23"/>
<path d="M64.097 480.373C64.7609 483.431 62.8242 486.442 59.7724 487.104C56.7206 487.767 53.7032 485.831 53.0393 482.773C52.3769 479.721 54.3205 476.709 57.3724 476.047C60.4242 475.384 63.4346 477.321 64.097 480.373Z" fill="#F79326"/>
<path d="M101.576 472.238C102.24 475.297 100.296 478.309 97.2514 478.97C94.1926 479.633 91.1822 477.697 90.5183 474.638C89.8559 471.586 91.7926 468.576 94.8514 467.912C97.8962 467.251 100.914 469.186 101.576 472.238Z" fill="#F79326"/>
<path d="M95.7092 473.511L90.8381 451.068C88.6316 440.903 78.6068 434.447 68.441 436.654C58.2752 438.86 51.8285 448.891 54.0349 459.056L58.9061 481.499" stroke="#141515" stroke-width="4.8742" stroke-miterlimit="10" stroke-linecap="round" stroke-linejoin="round"/>
</g>
</g>
</g>
<path d="M69.7574 510.165C69.1341 509.617 68.5348 509.071 67.9596 508.528C67.3958 507.967 66.7815 507.355 66.1166 506.691C65.4666 506.024 64.7238 505.292 63.8882 504.495C63.0642 503.679 62.0785 502.736 60.9313 501.665C61.182 502.781 61.4075 503.786 61.6081 504.679C61.8052 505.557 61.9816 506.377 62.1372 507.139C62.2927 507.902 62.4383 508.619 62.5738 509.292C62.7093 509.965 62.8373 510.64 62.958 511.316C63.0233 511.677 63.0479 511.961 63.0318 512.167C63.0306 512.371 62.9971 512.535 62.9312 512.659C62.8653 512.783 62.7745 512.866 62.6588 512.908C62.5613 512.961 62.4381 513.004 62.2893 513.038C62.0214 513.098 61.7782 513.059 61.5595 512.92C61.3374 512.767 61.143 512.388 60.9762 511.785C60.5342 510.165 60.1219 508.538 59.7394 506.904C59.3685 505.252 58.9858 503.548 58.5915 501.792C58.3675 500.795 58.1995 500.012 58.0874 499.443C57.9902 498.871 57.947 498.435 57.9579 498.135C57.9837 497.833 58.0552 497.629 58.1725 497.525C58.3046 497.417 58.4897 497.336 58.7278 497.283C58.9659 497.229 59.3202 497.345 59.7907 497.63C60.2578 497.9 60.7889 498.281 61.3839 498.773C61.979 499.265 62.6238 499.839 63.3184 500.496C64.028 501.149 64.7351 501.827 65.4398 502.529C66.1444 503.23 66.8251 503.929 67.4818 504.626C68.1534 505.319 68.7636 505.948 69.3125 506.513C69.1405 505.817 68.961 505.052 68.7738 504.218C68.5833 503.37 68.3728 502.433 68.1422 501.406C67.8782 500.23 67.6684 499.261 67.5128 498.499C67.3539 497.722 67.2541 497.103 67.2134 496.643C67.1875 496.18 67.2289 495.842 67.3376 495.63C67.4464 495.418 67.6347 495.282 67.9025 495.222C68.1555 495.165 68.3971 495.197 68.6274 495.317C68.8576 495.438 69.0544 495.792 69.2179 496.381C69.368 496.91 69.4972 497.381 69.6057 497.794C69.7141 498.208 69.8226 498.621 69.9311 499.034C70.0362 499.433 70.1389 499.855 70.2391 500.302C70.336 500.733 70.4463 501.224 70.57 501.775C70.7204 502.445 70.8641 503.085 71.0011 503.695C71.1381 504.305 71.266 504.909 71.3848 505.508C71.5036 506.107 71.6241 506.713 71.7462 507.326C71.8684 507.94 71.9898 508.585 72.1104 509.261C72.1757 509.622 72.2003 509.905 72.1843 510.112C72.1831 510.316 72.1495 510.479 72.0836 510.604C72.0177 510.728 71.9269 510.811 71.8112 510.852C71.7137 510.906 71.5906 510.949 71.4417 510.982C71.1887 511.039 70.9562 511.013 70.7442 510.904C70.5322 510.796 70.2033 510.549 69.7574 510.165ZM79.4923 504.766C78.9714 504.883 78.4124 504.969 77.8153 505.025C77.2298 505.063 76.5721 505.023 75.8422 504.906C76.18 505.783 76.7058 506.384 77.4196 506.709C78.1482 507.03 79.0929 507.06 80.2537 506.799C80.6704 506.706 81.0375 506.6 81.3548 506.482C81.6837 506.345 81.968 506.219 82.2076 506.102C82.4439 505.971 82.6538 505.862 82.8372 505.773C83.0173 505.671 83.1892 505.601 83.3529 505.564C83.5613 505.517 83.7772 505.539 84.0008 505.629C84.221 505.705 84.3645 505.892 84.4313 506.189C84.5149 506.561 84.4271 506.902 84.1681 507.21C83.9239 507.515 83.5953 507.792 83.1823 508.041C82.7808 508.272 82.3395 508.465 81.8584 508.62C81.3807 508.789 80.9558 508.916 80.5837 509C79.7057 509.197 78.8679 509.26 78.0703 509.189C77.2876 509.114 76.5749 508.899 75.9322 508.543C75.2862 508.173 74.7341 507.664 74.2761 507.016C73.818 506.369 73.4821 505.569 73.2682 504.616C73.061 503.693 73.0185 502.843 73.1409 502.065C73.2781 501.284 73.5446 500.591 73.9403 499.986C74.336 499.382 74.8477 498.876 75.4754 498.469C76.1181 498.059 76.8412 497.764 77.6448 497.583C78.2699 497.443 78.891 497.39 79.5082 497.423C80.1402 497.453 80.7162 497.582 81.2362 497.809C81.7711 498.033 82.2292 498.367 82.6107 498.813C83.0038 499.241 83.2755 499.789 83.4259 500.459C83.5596 501.054 83.5616 501.585 83.4319 502.052C83.3023 502.519 83.0575 502.926 82.6976 503.272C82.3526 503.616 81.9033 503.912 81.3496 504.161C80.8109 504.407 80.1917 504.609 79.4923 504.766ZM78.173 499.622C77.7712 499.712 77.396 499.851 77.0473 500.039C76.6953 500.212 76.3881 500.445 76.1257 500.738C75.8749 501.014 75.6854 501.353 75.5572 501.757C75.4258 502.146 75.3813 502.61 75.4239 503.147C76.0462 503.273 76.6369 503.328 77.1961 503.312C77.7519 503.281 78.3274 503.199 78.9227 503.065C79.8007 502.868 80.4247 502.618 80.7946 502.316C81.1761 501.996 81.3033 501.553 81.1763 500.988C81.0593 500.467 80.7565 500.058 80.2678 499.761C79.7939 499.461 79.0957 499.415 78.173 499.622ZM90.7339 497.692C90.7798 497.479 90.8745 497.309 91.0182 497.183C91.1734 497.039 91.3551 496.943 91.5635 496.896C91.7421 496.856 91.9232 496.863 92.107 496.915C92.3056 496.964 92.4787 497.074 92.6264 497.244C93.2384 497.951 93.8091 498.682 94.3386 499.439C94.8796 500.177 95.4462 500.925 96.0385 501.683C96.1399 500.394 96.2066 499.16 96.2387 497.98C96.2675 496.786 96.3087 495.612 96.3623 494.459C96.3796 494.048 96.4642 493.764 96.616 493.605C96.7645 493.43 96.9802 493.312 97.2629 493.248C97.5159 493.191 97.741 493.219 97.9381 493.331C98.1319 493.428 98.2555 493.596 98.309 493.834C98.3524 494.027 98.3772 494.381 98.3833 494.896C98.401 495.392 98.3998 495.979 98.3798 496.655C98.3714 497.314 98.3506 498.022 98.3176 498.78C98.2994 499.534 98.2671 500.261 98.2207 500.959C98.1891 501.654 98.1517 502.287 98.1083 502.86C98.0649 503.432 98.0286 503.863 97.9995 504.151C97.9573 504.52 97.8728 504.804 97.7458 505.005C97.6222 505.22 97.3893 505.366 97.047 505.443C96.7345 505.513 96.4473 505.453 96.1855 505.261C95.9203 505.055 95.66 504.801 95.4046 504.499C95.3183 504.393 95.1764 504.214 94.979 503.961C94.7816 503.709 94.5427 503.411 94.2623 503.067C93.9968 502.72 93.7007 502.341 93.3739 501.93C93.0619 501.515 92.7408 501.095 92.4107 500.669C92.2944 501.195 92.169 501.716 92.0345 502.231C91.9149 502.742 91.8034 503.221 91.7002 503.666C91.5936 504.096 91.4977 504.47 91.4123 504.786C91.3419 505.099 91.2903 505.321 91.2575 505.454C91.1558 505.836 91.0292 506.177 90.8776 506.477C90.7376 506.758 90.5039 506.936 90.1765 507.009C89.6557 507.126 89.1844 506.873 88.7628 506.248C88.5985 506.004 88.376 505.64 88.0953 505.155C87.8113 504.656 87.5065 504.1 87.1808 503.485C86.8552 502.87 86.5246 502.233 86.1889 501.574C85.8499 500.9 85.5358 500.267 85.2466 499.675C84.9723 499.08 84.7371 498.555 84.5408 498.098C84.3446 497.642 84.2231 497.31 84.1763 497.102C84.1195 496.849 84.1396 496.625 84.2368 496.431C84.3489 496.234 84.5388 496.106 84.8067 496.045C85.1044 495.979 85.3575 495.992 85.5662 496.086C85.7864 496.162 85.992 496.381 86.1831 496.745C86.7247 497.764 87.2639 498.808 87.8006 499.875C88.334 500.928 88.9221 502.015 89.5649 503.137C89.7318 502.349 89.8921 501.532 90.0458 500.684C90.1994 499.837 90.4288 498.84 90.7339 497.692Z" fill="black"/>
<path d="M64.0628 541.356C63.0407 540.007 62.1047 538.693 61.2548 537.414C60.4164 536.117 59.6876 534.96 59.0682 533.942C59.1403 535.865 59.2679 537.79 59.4509 539.719C59.6487 541.644 59.7612 543.502 59.7884 545.294C59.786 545.701 59.6808 545.998 59.4728 546.186C59.2614 546.358 59.0738 546.463 58.9101 546.5C58.6423 546.56 58.4081 546.526 58.2076 546.399C58.022 546.269 57.9009 546.078 57.844 545.825C57.7672 545.482 57.6874 544.953 57.6047 544.237C57.5336 543.502 57.4573 542.675 57.3759 541.756C57.3093 540.833 57.2475 539.862 57.1907 538.843C57.1338 537.824 57.0853 536.842 57.0451 535.898C57.0165 534.935 56.9931 534.065 56.9748 533.287C56.9714 532.506 56.9841 531.902 57.0129 531.473C57.0526 530.745 57.3701 530.314 57.9654 530.18C58.3226 530.1 58.6678 530.21 59.001 530.511C59.3308 530.796 59.719 531.272 60.1655 531.937C60.6236 532.585 61.1772 533.414 61.8263 534.425C62.4903 535.433 63.3168 536.607 64.3058 537.948C64.6116 536.317 64.8359 534.914 64.9789 533.741C65.1334 532.549 65.2643 531.566 65.3718 530.792C65.4908 529.999 65.6384 529.403 65.8145 529.004C65.9873 528.59 66.2597 528.341 66.6317 528.258C66.974 528.181 67.2545 528.212 67.4732 528.35C67.6886 528.474 67.8793 528.697 68.0455 529.019C68.2432 529.412 68.5 529.964 68.816 530.675C69.1285 531.371 69.4686 532.154 69.8362 533.025C70.2153 533.878 70.597 534.777 70.9813 535.722C71.3655 536.668 71.7249 537.572 72.0594 538.435C72.3938 539.298 72.6801 540.085 72.9183 540.798C73.168 541.492 73.3363 542.033 73.4232 542.42C73.4767 542.658 73.4383 542.87 73.308 543.055C73.1744 543.226 72.981 543.34 72.7281 543.397C72.5644 543.433 72.3501 543.419 72.0852 543.353C71.817 543.273 71.5949 543.049 71.4187 542.682C71.0496 541.874 70.6887 541.033 70.336 540.158C69.9982 539.281 69.6588 538.396 69.3176 537.503C68.988 536.592 68.6601 535.689 68.3338 534.793C68.0042 533.882 67.6688 532.98 67.3277 532.088C67.2679 532.726 67.1917 533.431 67.0992 534.202C67.0066 534.974 66.9008 535.756 66.7818 536.548C66.6595 537.326 66.528 538.098 66.3874 538.864C66.2469 539.631 66.0987 540.328 65.9429 540.957C65.8822 541.174 65.7743 541.355 65.6191 541.499C65.4754 541.625 65.3143 541.708 65.1357 541.748C64.9423 541.792 64.7462 541.789 64.5476 541.74C64.3605 541.672 64.1989 541.545 64.0628 541.356ZM79.8658 537.479C79.3449 537.596 78.786 537.682 78.1889 537.738C77.6033 537.776 76.9456 537.736 76.2157 537.619C76.5535 538.496 77.0793 539.097 77.7931 539.422C78.5217 539.743 79.4664 539.773 80.6272 539.512C81.0439 539.419 81.411 539.313 81.7284 539.195C82.0573 539.058 82.3415 538.932 82.5812 538.816C82.8174 538.684 83.0273 538.575 83.2107 538.487C83.3908 538.384 83.5627 538.314 83.7264 538.277C83.9348 538.23 84.1507 538.252 84.3743 538.343C84.5945 538.418 84.738 538.605 84.8048 538.902C84.8884 539.274 84.8006 539.615 84.5416 539.923C84.2974 540.228 83.9688 540.505 83.5558 540.754C83.1543 540.985 82.713 541.178 82.2319 541.333C81.7542 541.502 81.3293 541.629 80.9572 541.713C80.0792 541.91 79.2414 541.973 78.4438 541.902C77.6611 541.828 76.9485 541.612 76.3058 541.257C75.6597 540.886 75.1077 540.377 74.6496 539.729C74.1916 539.082 73.8556 538.282 73.6417 537.329C73.4345 536.407 73.3921 535.556 73.5144 534.778C73.6516 533.997 73.9181 533.304 74.3138 532.7C74.7095 532.095 75.2212 531.589 75.849 531.182C76.4916 530.772 77.2147 530.477 78.0184 530.297C78.6434 530.156 79.2645 530.103 79.8817 530.136C80.5137 530.166 81.0897 530.295 81.6097 530.522C82.1446 530.746 82.6028 531.08 82.9843 531.526C83.3773 531.954 83.649 532.503 83.7994 533.172C83.9331 533.767 83.9351 534.299 83.8055 534.765C83.6758 535.232 83.431 535.639 83.0712 535.985C82.7262 536.329 82.2768 536.625 81.7232 536.874C81.1844 537.12 80.5653 537.322 79.8658 537.479ZM78.5465 532.335C78.1447 532.425 77.7695 532.564 77.4208 532.752C77.0688 532.925 76.7616 533.158 76.4993 533.452C76.2484 533.727 76.0589 534.066 75.9308 534.47C75.7993 534.859 75.7548 535.323 75.7974 535.86C76.4197 535.986 77.0105 536.041 77.5696 536.025C78.1254 535.994 78.7009 535.912 79.2962 535.778C80.1743 535.581 80.7982 535.331 81.1681 535.029C81.5496 534.709 81.6768 534.266 81.5498 533.701C81.4328 533.18 81.13 532.771 80.6413 532.474C80.1675 532.174 79.4692 532.128 78.5465 532.335ZM87.3837 538.675C87.2072 538.167 87.028 537.543 86.846 536.803C86.664 536.062 86.4544 535.163 86.2171 534.107C85.9831 533.065 85.7943 532.224 85.6506 531.584C85.5218 530.941 85.4394 530.365 85.4036 529.857C85.3409 529.231 85.364 528.811 85.4727 528.599C85.5963 528.384 85.7846 528.248 86.0376 528.191C86.2162 528.151 86.3758 528.131 86.5164 528.13C86.6719 528.127 86.8134 528.165 86.941 528.246C87.0801 528.308 87.1995 528.422 87.2991 528.588C87.3988 528.753 87.4837 528.992 87.5538 529.304C87.5672 529.364 87.588 529.422 87.6163 529.478C87.6296 529.537 87.6447 529.604 87.6614 529.679C87.6896 529.735 87.7138 529.808 87.7338 529.897C88.022 529.301 88.379 528.767 88.8048 528.296C89.2455 527.822 89.7932 527.512 90.448 527.365C91.326 527.167 91.8469 527.433 92.0107 528.163C92.0708 528.431 92.0614 528.667 91.9825 528.872C91.9184 529.074 91.7956 529.258 91.614 529.424C91.4439 529.572 91.2316 529.705 90.9771 529.825C90.7375 529.941 90.4681 530.064 90.1689 530.194C89.7128 530.39 89.3047 530.662 88.9449 531.008C88.5816 531.34 88.3674 531.709 88.3021 532.114C88.3656 532.397 88.4124 532.605 88.4425 532.739C88.4874 532.87 88.5199 532.98 88.54 533.069C88.5749 533.155 88.6041 533.25 88.6275 533.354C88.6509 533.458 88.6876 533.622 88.7378 533.845C88.9082 534.604 89.0538 535.322 89.1744 535.998C89.2917 536.66 89.4223 537.381 89.5663 538.161C89.6317 538.522 89.6488 538.807 89.6179 539.017C89.6018 539.224 89.5534 539.391 89.4726 539.519C89.4067 539.643 89.3159 539.726 89.2002 539.768C89.0878 539.824 88.9721 539.866 88.853 539.893C88.4363 539.986 88.1335 539.96 87.9446 539.815C87.7672 539.652 87.5803 539.272 87.3837 538.675ZM98.1986 525.718C98.6302 525.621 99.0701 525.561 99.5184 525.539C99.9816 525.513 100.407 525.527 100.794 525.581C101.181 525.634 101.508 525.733 101.775 525.876C102.042 526.019 102.203 526.218 102.26 526.471C102.407 527.125 102.109 527.536 101.365 527.703C101.186 527.744 101.01 527.76 100.836 527.752C100.674 527.726 100.484 527.714 100.265 527.716C100.044 527.703 99.7714 527.71 99.4488 527.735C99.123 527.746 98.7293 527.803 98.268 527.906C97.2858 528.127 96.602 528.632 96.2166 529.422C95.8313 530.212 95.7589 531.143 95.9995 532.215C96.2636 533.39 96.7437 534.275 97.4398 534.869C98.1509 535.46 99.0049 535.643 100.002 535.419C100.627 535.279 101.121 535.113 101.485 534.922C101.848 534.731 102.134 534.542 102.342 534.354C102.565 534.164 102.739 533.999 102.865 533.862C103.005 533.721 103.172 533.629 103.365 533.585C103.633 533.525 103.855 533.538 104.031 533.624C104.218 533.691 104.35 533.896 104.427 534.238C104.507 534.595 104.436 534.939 104.213 535.271C104.005 535.599 103.713 535.899 103.336 536.171C102.96 536.443 102.536 536.679 102.065 536.879C101.609 537.075 101.18 537.218 100.778 537.308C98.9773 537.713 97.4516 537.532 96.2008 536.765C94.95 535.999 94.1191 534.7 93.708 532.87C93.5309 532.081 93.4829 531.31 93.5639 530.557C93.6565 529.786 93.8882 529.078 94.259 528.432C94.6297 527.786 95.1372 527.226 95.7814 526.753C96.4404 526.277 97.2461 525.932 98.1986 525.718ZM109.925 525.406C109.374 525.53 108.894 525.723 108.484 525.987C108.09 526.248 107.649 526.581 107.161 526.988C107.165 527.003 107.197 527.144 107.257 527.412C107.317 527.68 107.386 528.024 107.465 528.444C107.559 528.861 107.656 529.331 107.759 529.855C107.872 530.361 107.98 530.876 108.082 531.401C108.196 531.907 108.289 532.394 108.363 532.862C108.452 533.326 108.524 533.717 108.579 534.032C108.62 534.352 108.638 534.605 108.633 534.794C108.643 534.979 108.629 535.123 108.589 535.226C108.561 535.31 108.505 535.37 108.419 535.405C108.333 535.44 108.238 535.469 108.133 535.493C107.88 535.549 107.676 535.58 107.521 535.583C107.383 535.598 107.262 535.579 107.156 535.525C107.046 535.455 106.951 535.344 106.87 535.19C106.803 535.033 106.723 534.817 106.63 534.54C106.537 534.264 106.42 533.884 106.28 533.4C106.151 532.897 106.011 532.342 105.859 531.736C105.704 531.114 105.54 530.455 105.369 529.759C105.211 529.059 105.056 528.367 104.902 527.683C104.749 526.998 104.586 526.276 104.416 525.517C104.257 524.74 104.107 524 103.964 523.297C103.819 522.58 103.692 521.944 103.583 521.39C103.471 520.821 103.4 520.399 103.369 520.125C103.312 519.731 103.304 519.381 103.345 519.075C103.4 518.766 103.621 518.568 104.008 518.481C104.306 518.414 104.567 518.465 104.793 518.633C105.033 518.798 105.233 519.167 105.393 519.741C105.54 520.255 105.726 520.979 105.952 521.913C106.189 522.829 106.445 523.866 106.72 525.023C106.892 524.813 107.111 524.607 107.379 524.407C107.643 524.191 107.929 524.002 108.236 523.839C108.54 523.661 108.857 523.504 109.186 523.368C109.515 523.231 109.828 523.13 110.126 523.063C110.84 522.902 111.496 522.935 112.094 523.16C112.703 523.367 113.234 523.748 113.687 524.303C113.986 524.658 114.242 525.07 114.457 525.537C114.668 525.99 114.856 526.479 115.021 527.005C115.089 527.24 115.157 527.475 115.226 527.709C115.291 527.929 115.353 528.173 115.413 528.441C115.485 528.691 115.558 528.979 115.631 529.307C115.705 529.634 115.792 530.021 115.892 530.467C115.992 530.914 116.078 531.332 116.15 531.722C116.219 532.098 116.248 532.435 116.237 532.735C116.238 533.016 116.182 533.255 116.07 533.452C115.954 533.635 115.763 533.756 115.495 533.816C115.108 533.903 114.791 533.849 114.544 533.654C114.309 533.441 114.153 533.164 114.076 532.822C114.072 532.807 114.037 532.65 113.97 532.353C113.904 532.055 113.819 531.714 113.718 531.331C113.627 530.929 113.53 530.529 113.425 530.13C113.334 529.729 113.253 529.403 113.182 529.153C113.113 528.918 113.034 528.67 112.944 528.409C112.866 528.13 112.773 527.854 112.664 527.581C112.571 527.305 112.466 527.047 112.35 526.808C112.23 526.553 112.102 526.332 111.966 526.143C111.648 525.699 111.317 525.445 110.975 525.381C110.632 525.317 110.282 525.326 109.925 525.406Z" fill="black"/>
<path d="M68.2731 560.616C69.8059 560.271 71.0855 560.226 72.1118 560.48C73.1381 560.735 73.982 561.186 74.6435 561.835C75.3051 562.483 75.8189 563.275 76.1849 564.209C76.5659 565.139 76.8683 566.103 77.0922 567.1C77.3362 568.186 77.4254 569.245 77.3599 570.276C77.3092 571.303 77.0756 572.247 76.659 573.106C76.2539 573.948 75.6533 574.685 74.8573 575.317C74.058 575.934 73.0407 576.381 71.8055 576.659C70.8233 576.879 70.0178 576.982 69.3891 576.967C68.7786 576.963 68.278 576.857 67.8871 576.647C67.511 576.435 67.2225 576.124 67.0214 575.716C66.8203 575.308 66.6546 574.814 66.5242 574.233L64.6393 565.84C64.4956 565.2 64.4174 564.608 64.4046 564.064C64.4067 563.516 64.5313 563.027 64.7785 562.596C65.0224 562.151 65.4202 561.764 65.972 561.437C66.5388 561.107 67.3058 560.833 68.2731 560.616ZM71.4604 574.391C72.3831 574.184 73.1053 573.85 73.6271 573.389C74.1604 572.909 74.5438 572.354 74.7773 571.723C75.0108 571.093 75.116 570.412 75.0929 569.683C75.0846 568.95 74.9986 568.219 74.8349 567.49C74.6845 566.82 74.482 566.162 74.2274 565.516C73.9695 564.855 73.615 564.285 73.164 563.808C72.7129 563.331 72.1439 562.99 71.4568 562.785C70.7698 562.58 69.9203 562.591 68.9083 562.818C67.9857 563.025 67.3758 563.303 67.0788 563.651C66.7818 563.999 66.6951 564.448 66.8188 564.999L68.7388 573.549C68.8424 574.01 69.0846 574.323 69.4655 574.487C69.8579 574.634 70.5229 574.602 71.4604 574.391ZM80.8903 572.93C80.7138 572.423 80.5346 571.798 80.3526 571.058C80.1706 570.317 79.961 569.418 79.7237 568.362C79.4897 567.32 79.3009 566.479 79.1572 565.839C79.0284 565.196 78.946 564.62 78.9102 564.112C78.8475 563.486 78.8706 563.066 78.9793 562.854C79.1029 562.639 79.2912 562.503 79.5442 562.446C79.7228 562.406 79.8824 562.386 80.023 562.385C80.1785 562.382 80.32 562.42 80.4476 562.501C80.5867 562.564 80.7061 562.677 80.8057 562.843C80.9054 563.008 80.9903 563.247 81.0604 563.559C81.0738 563.619 81.0946 563.677 81.1229 563.733C81.1362 563.792 81.1513 563.859 81.168 563.934C81.1962 563.99 81.2204 564.063 81.2404 564.152C81.5286 563.556 81.8856 563.022 82.3114 562.551C82.752 562.077 83.2998 561.767 83.9546 561.62C84.8326 561.422 85.3535 561.688 85.5173 562.418C85.5774 562.686 85.568 562.922 85.4891 563.127C85.425 563.329 85.3022 563.513 85.1206 563.679C84.9505 563.827 84.7382 563.96 84.4837 564.08C84.2441 564.197 83.9747 564.32 83.6755 564.449C83.2194 564.645 82.8113 564.917 82.4515 565.263C82.0882 565.595 81.874 565.964 81.8087 566.369C81.8722 566.652 81.919 566.86 81.9491 566.994C81.994 567.125 82.0265 567.235 82.0466 567.324C82.0815 567.41 82.1107 567.505 82.1341 567.609C82.1575 567.713 82.1942 567.877 82.2444 568.1C82.4148 568.859 82.5604 569.577 82.681 570.253C82.7983 570.915 82.9289 571.636 83.0729 572.416C83.1383 572.777 83.1554 573.062 83.1245 573.272C83.1084 573.479 83.06 573.647 82.9792 573.774C82.9133 573.898 82.8225 573.981 82.7068 574.023C82.5944 574.079 82.4787 574.121 82.3596 574.148C81.9429 574.241 81.6401 574.215 81.4512 574.07C81.2738 573.907 81.0868 573.527 80.8903 572.93ZM91.7872 560.025C92.6355 559.834 93.4245 559.798 94.1544 559.915C94.8809 560.018 95.5283 560.256 96.0966 560.628C96.6797 560.997 97.1747 561.496 97.5814 562.124C97.9881 562.751 98.2867 563.489 98.4772 564.338C98.6878 565.275 98.7278 566.15 98.5972 566.961C98.4816 567.768 98.2218 568.491 97.8179 569.129C97.4289 569.763 96.909 570.302 96.2581 570.745C95.6222 571.185 94.8875 571.498 94.0541 571.686C93.1463 571.89 92.3076 571.914 91.538 571.758C90.7832 571.599 90.1076 571.306 89.511 570.877C88.9294 570.445 88.4409 569.906 88.0458 569.26C87.6506 568.614 87.3661 567.904 87.1923 567.13C87.0018 566.282 86.962 565.478 87.0728 564.718C87.1951 563.94 87.4525 563.242 87.8448 562.622C88.2487 561.984 88.7835 561.442 89.4492 560.995C90.115 560.549 90.8943 560.225 91.7872 560.025ZM93.6822 569.612C94.2924 569.475 94.7898 569.254 95.1746 568.948C95.5561 568.628 95.8406 568.26 96.0283 567.842C96.2308 567.422 96.3415 566.975 96.3603 566.501C96.3907 566.01 96.3507 565.519 96.2404 565.028C96.1268 564.522 95.9545 564.068 95.7237 563.666C95.5043 563.247 95.224 562.903 94.8826 562.636C94.5561 562.365 94.1644 562.188 93.7076 562.103C93.2624 561.999 92.757 562.011 92.1915 562.138C91.6111 562.269 91.1268 562.479 90.7387 562.769C90.3505 563.06 90.0461 563.409 89.8253 563.819C89.6161 564.209 89.4888 564.652 89.4436 565.147C89.3984 565.642 89.436 566.157 89.5563 566.693C89.8002 567.779 90.2744 568.603 90.9788 569.164C91.6947 569.706 92.5958 569.856 93.6822 569.612ZM104.928 572.339C104.991 572.622 105.044 572.891 105.086 573.148C105.131 573.419 105.132 573.669 105.09 573.897C105.062 574.122 104.98 574.313 104.843 574.468C104.724 574.636 104.523 574.751 104.241 574.815C103.913 574.888 103.611 574.831 103.335 574.643C103.076 574.467 102.867 574.092 102.707 573.518C102.608 573.149 102.484 572.7 102.334 572.171C102.184 571.642 102.027 571.083 101.864 570.495C101.715 569.903 101.559 569.312 101.396 568.724C101.247 568.132 101.116 567.583 101.002 567.077C100.611 565.336 100.408 563.873 100.392 562.688C100.391 561.501 100.561 560.517 100.902 559.737C101.242 558.957 101.74 558.353 102.394 557.924C103.063 557.493 103.874 557.17 104.826 556.956C105.585 556.786 106.326 556.744 107.049 556.832C107.769 556.905 108.43 557.132 109.031 557.512C109.644 557.875 110.186 558.41 110.658 559.117C111.126 559.809 111.48 560.691 111.721 561.762C111.921 562.655 111.942 563.479 111.783 564.234C111.639 564.985 111.353 565.659 110.924 566.256C110.492 566.837 109.94 567.337 109.267 567.753C108.607 568.152 107.867 568.443 107.048 568.627C106.349 568.784 105.685 568.785 105.056 568.629C104.438 568.455 103.972 568.223 103.657 567.935C103.919 568.751 104.152 569.512 104.357 570.216C104.577 570.917 104.767 571.625 104.928 572.339ZM105.216 559.213C104.695 559.33 104.261 559.522 103.914 559.787C103.582 560.049 103.332 560.363 103.164 560.729C102.997 561.095 102.902 561.507 102.879 561.966C102.872 562.421 102.925 562.901 103.039 563.407C103.149 563.898 103.299 564.357 103.489 564.783C103.69 565.192 103.939 565.534 104.235 565.812C104.532 566.089 104.888 566.282 105.304 566.392C105.719 566.502 106.195 566.497 106.731 566.377C107.147 566.283 107.538 566.141 107.901 565.95C108.261 565.744 108.56 565.474 108.798 565.139C109.05 564.801 109.215 564.388 109.294 563.902C109.387 563.412 109.358 562.832 109.208 562.162C109.054 561.478 108.829 560.927 108.532 560.509C108.246 560.073 107.915 559.748 107.539 559.536C107.175 559.305 106.786 559.173 106.372 559.141C105.973 559.106 105.588 559.13 105.216 559.213ZM111.603 551.331C111.495 550.714 111.511 550.296 111.65 550.077C111.785 549.844 111.986 549.697 112.254 549.637C112.403 549.603 112.533 549.59 112.644 549.596C112.766 549.584 112.884 549.62 112.996 549.705C113.109 549.789 113.209 549.923 113.297 550.106C113.4 550.286 113.499 550.553 113.594 550.907C113.798 551.674 113.998 552.426 114.195 553.164C114.392 553.901 114.574 554.642 114.741 555.386C114.825 555.758 114.892 556.095 114.944 556.396C115.011 556.693 115.071 556.993 115.122 557.293C115.189 557.591 115.243 557.9 115.283 558.219C115.339 558.535 115.402 558.888 115.474 559.278C115.526 559.579 115.544 559.833 115.528 560.04C115.509 560.232 115.466 560.39 115.4 560.514C115.334 560.638 115.247 560.736 115.138 560.807C115.04 560.861 114.925 560.902 114.791 560.932C114.523 560.992 114.298 560.965 114.115 560.849C113.93 560.719 113.755 560.461 113.59 560.076C113.44 559.688 113.281 559.153 113.113 558.472C112.944 557.791 112.741 556.922 112.504 555.865C112.313 555.017 112.135 554.189 111.97 553.382C111.819 552.572 111.697 551.888 111.603 551.331ZM115.482 564.013C115.825 563.936 116.167 564 116.51 564.204C116.868 564.405 117.089 564.692 117.172 565.064C117.252 565.421 117.174 565.767 116.936 566.102C116.696 566.421 116.389 566.623 116.017 566.707C115.705 566.777 115.378 566.717 115.039 566.528C114.711 566.32 114.503 566.023 114.417 565.636C114.336 565.278 114.402 564.943 114.613 564.63C114.835 564.299 115.125 564.093 115.482 564.013ZM116.573 550.215C116.466 549.598 116.481 549.18 116.62 548.961C116.755 548.728 116.957 548.581 117.224 548.521C117.373 548.487 117.503 548.474 117.614 548.48C117.736 548.468 117.854 548.504 117.967 548.588C118.079 548.673 118.18 548.806 118.268 548.99C118.371 549.17 118.47 549.437 118.565 549.791C118.768 550.558 118.969 551.31 119.165 552.048C119.362 552.785 119.544 553.526 119.711 554.27C119.795 554.642 119.863 554.978 119.915 555.279C119.981 555.577 120.041 555.876 120.093 556.177C120.16 556.475 120.213 556.783 120.254 557.103C120.309 557.418 120.373 557.772 120.445 558.162C120.497 558.463 120.515 558.717 120.498 558.924C120.479 559.115 120.436 559.274 120.371 559.398C120.305 559.522 120.217 559.62 120.108 559.691C120.011 559.744 119.895 559.786 119.761 559.816C119.493 559.876 119.268 559.849 119.086 559.733C118.9 559.603 118.725 559.345 118.56 558.96C118.411 558.572 118.252 558.037 118.083 557.356C117.914 556.674 117.711 555.805 117.474 554.749C117.284 553.901 117.106 553.073 116.94 552.266C116.789 551.456 116.667 550.772 116.573 550.215ZM120.453 562.897C120.795 562.82 121.138 562.883 121.481 563.088C121.838 563.289 122.059 563.575 122.143 563.947C122.223 564.305 122.144 564.651 121.907 564.985C121.666 565.305 121.359 565.507 120.987 565.59C120.675 565.661 120.349 565.601 120.009 565.411C119.681 565.204 119.474 564.906 119.387 564.519C119.307 564.162 119.372 563.827 119.583 563.514C119.806 563.183 120.096 562.977 120.453 562.897Z" fill="black"/>
<defs>
<filter id="filter0_d_26_28" x="0.79863" y="39.8861" width="102.466" height="404.036" filterUnits="userSpaceOnUse" color-interpolation-filters="sRGB">
<feFlood flood-opacity="0" result="BackgroundImageFix"/>
<feColorMatrix in="SourceAlpha" type="matrix" values="0 0 0 0 0 0 0 0 0 0 0 0 0 0 0 0 0 0 127 0" result="hardAlpha"/>
<feOffset dy="4"/>
<feGaussianBlur stdDeviation="2"/>
<feComposite in2="hardAlpha" operator="out"/>
<feColorMatrix type="matrix" values="0 0 0 0 0 0 0 0 0 0 0 0 0 0 0 0 0 0 0.25 0"/>
<feBlend mode="normal" in2="BackgroundImageFix" result="effect1_dropShadow_26_28"/>
<feBlend mode="normal" in="SourceGraphic" in2="effect1_dropShadow_26_28" result="shape"/>
</filter>
<clipPath id="clip0_26_28">
<rect width="60.6027" height="44.9594" fill="white" transform="translate(37.6 1.70001) rotate(-1.17925)"/>
</clipPath>
<clipPath id="clip1_26_28">
<rect width="60.6027" height="44.9594" fill="white" transform="translate(37.6 1.70001) rotate(-1.17925)"/>
</clipPath>
<clipPath id="clip2_26_28">
<rect width="60.4357" height="44.95" fill="white" transform="translate(37.6872 1.69824) rotate(-1.17925)"/>
</clipPath>
<clipPath id="clip3_26_28">
<rect width="116.962" height="164.134" fill="white" transform="translate(6.04 447.71) rotate(-12.246)"/>
</clipPath>
<clipPath id="clip4_26_28">
<rect width="116.962" height="164.134" fill="white" transform="translate(6.04 447.71) rotate(-12.246)"/>
</clipPath>
<clipPath id="clip5_26_28">
<rect width="116.93" height="164.13" fill="white" transform="translate(6.05947 447.706) rotate(-12.246)"/>
</clipPath>
</defs>
</svg>
