<svg width="152" height="608" viewBox="0 0 152 608" fill="none" xmlns="http://www.w3.org/2000/svg">
<mask id="mask0_2_57" style="mask-type:luminance" maskUnits="userSpaceOnUse" x="-2" y="36" width="51" height="209">
<path d="M-1.29257 39.1898L8.18475 243.61L47.9051 241.769L38.4278 37.3482L-1.29257 39.1898Z" fill="white" stroke="white"/>
<path d="M35.3303 40.6779C36.389 41.3286 36.7197 42.7143 36.069 43.773C35.4183 44.8316 34.0326 45.1623 32.9739 44.5116C31.9153 43.8609 31.5846 42.4752 32.2353 41.4166C32.886 40.3579 34.2717 40.0272 35.3303 40.6779Z" fill="black" stroke="black" stroke-width="1.5" stroke-linejoin="round"/>
</mask>
<g mask="url(#mask0_2_57)">
<path d="M44.9629 239.34C-3.13666 175.242 -6.37348 109.065 35.2525 40.8074" stroke="white" stroke-width="2"/>
</g>
<path d="M35.1995 40.8908C36.611 41.7584 37.052 43.606 36.1843 45.0176C35.3167 46.4291 33.4691 46.87 32.0576 46.0024C30.6461 45.1348 30.2051 43.2872 31.0727 41.8757C31.9403 40.4641 33.7879 40.0232 35.1995 40.8908Z" stroke="white" stroke-width="2" stroke-linecap="round" stroke-linejoin="round"/>
<g clip-path="url(#clip0_2_57)">
<g clip-path="url(#clip1_2_57)">
<g clip-path="url(#clip2_2_57)">
<g clip-path="url(#clip3_2_57)">
<path fill-rule="evenodd" clip-rule="evenodd" d="M67.487 14.2452L67.2119 13.505C57.6618 6.33911 54.755 14.7333 55.8058 20.3304C56.1659 23.8746 57.2634 27.3044 59.0277 30.3994C65.644 42.2516 81.5323 45.2406 78.486 31.0774L78.0826 29.7863L83.2338 23.113C88.2474 26.4195 94.664 26.9293 92.3772 16.8358C87.4002 5.07984 82.4459 2.3829 79.6789 3.68469C77.6199 4.65745 76.9075 7.92584 77.5323 11.0056L67.487 14.2452Z" fill="#ED5F72"/>
<path fill-rule="evenodd" clip-rule="evenodd" d="M60.9717 33.1792L57.6294 27.7411L36.9268 43.1208L60.9717 33.1792Z" fill="#E6E6E6"/>
<path fill-rule="evenodd" clip-rule="evenodd" d="M84.026 23.2163C81.4797 26.5224 78.7761 29.7668 76.3193 33.1309C76.2659 33.2103 76.1972 33.2782 76.117 33.3306C76.0369 33.3829 75.9471 33.4186 75.8529 33.4356C75.7587 33.4526 75.6621 33.4504 75.5688 33.4294C75.4754 33.4083 75.3873 33.3686 75.3095 33.3128C75.1505 33.1976 75.0427 33.0249 75.0091 32.8315C74.9755 32.638 75.0188 32.439 75.1297 32.277C77.5991 28.8945 80.3128 25.6369 82.8718 22.3149C82.9281 22.2375 82.9995 22.1722 83.0817 22.1231C83.1638 22.0739 83.255 22.0418 83.3498 22.0287C83.4447 22.0156 83.5412 22.0217 83.6336 22.0468C83.726 22.0718 83.8124 22.1152 83.8876 22.1744C84.0398 22.2961 84.1392 22.4719 84.1649 22.665C84.1907 22.8582 84.1409 23.0538 84.0259 23.2111" fill="#540C2C"/>
<path fill-rule="evenodd" clip-rule="evenodd" d="M77.6438 12.0038C73.1375 13.396 68.6164 14.5702 64.1385 16.0813C61.3467 20.97 69.5952 34.5999 75.3822 32.0457C75.4666 32.0002 75.5594 31.9722 75.6548 31.9632C75.7503 31.9542 75.8467 31.9644 75.9381 31.9933C76.0296 32.0222 76.1143 32.0691 76.1873 32.1314C76.2603 32.1936 76.3201 32.2698 76.3631 32.3556C76.4537 32.5292 76.4729 32.7314 76.4166 32.919C76.3603 33.1066 76.2328 33.2647 76.0615 33.3597C68.2863 36.7891 59.0839 20.2499 63.0923 14.9984C63.5605 14.3884 75.3836 11.159 77.2043 10.6017C77.2959 10.5726 77.3923 10.562 77.488 10.5705C77.5837 10.5791 77.6767 10.6067 77.7616 10.6516C77.8465 10.6966 77.9216 10.758 77.9825 10.8324C78.0433 10.9067 78.0887 10.9924 78.1161 11.0845C78.1752 11.2708 78.1589 11.4728 78.0707 11.6472C77.9824 11.8215 77.8292 11.9543 77.6441 12.0168" fill="#540C2C"/>
<path fill-rule="evenodd" clip-rule="evenodd" d="M78.7435 3.30891C78.7957 3.25838 78.8553 3.21599 78.9202 3.18312C78.9688 3.15668 79.0209 3.13723 79.0749 3.12536C86.8366 0.171866 93.5805 14.3109 93.5512 20.5877C93.5338 24.2914 91.0791 26.7458 87.5045 26.0527C80.8979 24.7724 72.4194 7.92464 78.7435 3.30891ZM79.5712 4.51071C75.2641 7.37231 80.5393 18.0852 82.9713 21.0913C84.7472 23.282 88.8144 26.5663 91.3788 23.3794C94.042 20.0656 89.3259 10.8849 87.0874 8.0671C85.2198 5.71204 82.6611 3.24386 79.5712 4.51071Z" fill="#540C2C"/>
<path fill-rule="evenodd" clip-rule="evenodd" d="M66.7913 14.4102C63.3253 10.1571 56.3323 9.92163 56.3135 16.8375C56.2875 25.674 60.4715 34.2575 68.3291 38.3604C74.035 41.3381 79.3 39.434 77.9181 32.2741C77.825 31.6048 77.6053 30.9593 77.2709 30.3721C77.1517 30.2167 77.0978 30.021 77.1205 29.8265C77.1432 29.632 77.2407 29.4539 77.3924 29.3301C77.4668 29.2699 77.5526 29.2253 77.6447 29.199C77.7367 29.1726 77.8331 29.165 77.9281 29.1767C78.0231 29.1883 78.1148 29.2189 78.1978 29.2666C78.2808 29.3144 78.3533 29.3783 78.4111 29.4546C80.0368 32.6827 80.3228 37.864 76.9915 40.1546C71.0977 44.2105 62.0543 36.5353 58.847 31.4686C56.2547 27.3639 52.7617 16.1179 56.3832 11.8931C59.5251 8.22645 65.1562 10.096 67.9717 13.5491C68.0866 13.71 68.1335 13.9099 68.102 14.1052C68.0705 14.3005 67.9632 14.4754 67.8034 14.5921C67.726 14.6482 67.638 14.6884 67.5448 14.71C67.4516 14.7317 67.3551 14.7345 67.2608 14.7183C67.1665 14.7021 67.0764 14.6672 66.9958 14.6156C66.9152 14.564 66.8457 14.4968 66.7915 14.418" fill="#540C2C"/>
<path fill-rule="evenodd" clip-rule="evenodd" d="M57.7462 28.9938C52.1936 33.2117 45.9701 37.0327 40.3415 41.2209C47.0367 38.2244 53.7322 35.2409 60.428 32.2703C60.516 32.232 60.6108 32.2117 60.7067 32.2105C60.8027 32.2093 60.8979 32.2274 60.9868 32.2636C61.0757 32.2998 61.1564 32.3534 61.2243 32.4212C61.2922 32.4891 61.3458 32.5698 61.382 32.6587C61.4585 32.8386 61.4615 33.0413 61.3905 33.2235C61.3195 33.4056 61.18 33.5527 61.0018 33.6333C53.5782 36.9324 46.1574 40.2418 38.7394 43.5616C38.1473 43.8337 34.6052 45.9857 34.7263 44.164C34.7238 44.0419 34.8909 43.8306 35.1658 43.5494L35.207 43.5304C38.1855 40.5116 54.4666 29.6331 56.8617 27.814C56.9369 27.7549 57.0232 27.7115 57.1155 27.6864C57.2078 27.6613 57.3042 27.655 57.399 27.6678C57.4938 27.6806 57.585 27.7124 57.6673 27.7611C57.7496 27.8099 57.8213 27.8746 57.878 27.9516C57.9961 28.1083 58.0483 28.3049 58.0237 28.4995C57.9991 28.6941 57.8995 28.8715 57.7462 28.9938Z" fill="#540C2C"/>
</g>
</g>
</g>
</g>
<path d="M42.4992 236.159C93.5345 298.329 99.5094 364.564 60.4237 434.864" stroke="white" stroke-width="2"/>
<g clip-path="url(#clip4_2_57)">
<g clip-path="url(#clip5_2_57)">
<g clip-path="url(#clip6_2_57)">
<g clip-path="url(#clip7_2_57)">
<path d="M81.1323 475.367L76.2612 452.924C74.0547 442.758 64.0299 436.303 53.864 438.51C43.6982 440.716 37.2515 450.746 39.458 460.912L44.3292 483.355" stroke="#100F0F" stroke-width="4.8742" stroke-miterlimit="10" stroke-linecap="round" stroke-linejoin="round"/>
<path d="M140.424 579.123C141.113 582.3 139.071 585.465 135.887 586.156L42.653 606.392C39.4758 607.082 36.3058 605.048 35.6162 601.871L20.2888 478.95C19.5991 475.772 21.6394 472.601 24.8167 471.911L96.3675 456.381C99.5517 455.69 102.716 457.732 103.406 460.909L140.424 579.123Z" fill="#F79326"/>
<path d="M149.886 577.069C150.575 580.246 148.533 583.411 145.356 584.1L52.1151 604.338C48.9378 605.028 45.7678 602.995 45.0782 599.817L29.7578 476.894C29.0682 473.717 31.1015 470.547 34.2857 469.856L105.837 454.326C109.014 453.636 112.185 455.677 112.875 458.854L149.886 577.069Z" fill="#F9AF23"/>
<path d="M60.097 479.933C60.7609 482.991 58.8242 486.002 55.7724 486.664C52.7206 487.327 49.7032 485.391 49.0393 482.333C48.3769 479.281 50.3205 476.269 53.3723 475.606C56.4242 474.944 59.4346 476.881 60.097 479.933Z" fill="#F79326"/>
<path d="M97.576 471.798C98.2399 474.857 96.2962 477.869 93.2514 478.529C90.1926 479.193 87.1822 477.257 86.5183 474.198C85.8559 471.146 87.7925 468.136 90.8513 467.472C93.8962 466.811 96.9136 468.746 97.576 471.798Z" fill="#F79326"/>
<path d="M91.7092 473.071L86.8381 450.628C84.6316 440.463 74.6067 434.007 64.4409 436.214C54.2751 438.42 47.8284 448.451 50.0349 458.616L54.9061 481.059" stroke="#141515" stroke-width="4.8742" stroke-miterlimit="10" stroke-linecap="round" stroke-linejoin="round"/>
</g>
</g>
</g>
</g>
<defs>
<clipPath id="clip0_2_57">
<rect width="60.6027" height="44.9594" fill="white" transform="translate(33.6 1.26001) rotate(-1.17925)"/>
</clipPath>
<clipPath id="clip1_2_57">
<rect width="60.6027" height="44.9594" fill="white" transform="translate(33.6 1.26001) rotate(-1.17925)"/>
</clipPath>
<clipPath id="clip2_2_57">
<rect width="60.6027" height="44.9594" fill="white" transform="translate(33.6 1.26001) rotate(-1.17925)"/>
</clipPath>
<clipPath id="clip3_2_57">
<rect width="60.4357" height="44.95" fill="white" transform="translate(33.6871 1.25818) rotate(-1.17925)"/>
</clipPath>
<clipPath id="clip4_2_57">
<rect width="116.962" height="164.134" fill="white" transform="translate(2.03998 447.27) rotate(-12.246)"/>
</clipPath>
<clipPath id="clip5_2_57">
<rect width="116.962" height="164.134" fill="white" transform="translate(2.03998 447.27) rotate(-12.246)"/>
</clipPath>
<clipPath id="clip6_2_57">
<rect width="116.962" height="164.134" fill="white" transform="translate(2.03998 447.27) rotate(-12.246)"/>
</clipPath>
<clipPath id="clip7_2_57">
<rect width="116.93" height="164.13" fill="white" transform="translate(2.05945 447.266) rotate(-12.246)"/>
</clipPath>
</defs>
</svg>
