<svg width="150" height="187" viewBox="0 0 150 187" fill="none" xmlns="http://www.w3.org/2000/svg">
<g clip-path="url(#clip0_4_63)">
<g clip-path="url(#clip1_4_63)">
<g clip-path="url(#clip2_4_63)">
<path d="M79.1323 53.807L74.2612 31.3642C72.0547 21.1984 62.0299 14.7432 51.8641 16.9497C41.6983 19.1562 35.2516 29.1864 37.458 39.3522L42.3292 61.795" stroke="#100F0F" stroke-width="4.8742" stroke-miterlimit="10" stroke-linecap="round" stroke-linejoin="round"/>
<path d="M138.424 157.563C139.113 160.74 137.071 163.905 133.887 164.596L40.653 184.832C37.4758 185.522 34.3058 183.488 33.6162 180.311L18.2888 57.3896C17.5992 54.2123 19.6395 51.0408 22.8167 50.3512L94.3676 34.8213C97.5518 34.1301 100.716 36.1719 101.406 39.3492L138.424 157.563Z" fill="#F79326"/>
<path d="M147.886 155.509C148.575 158.686 146.534 161.851 143.356 162.541L50.1151 182.778C46.9379 183.468 43.7679 181.435 43.0783 178.257L27.7578 55.3344C27.0682 52.1571 29.1015 48.9871 32.2858 48.296L103.837 32.766C107.014 32.0764 110.185 34.1167 110.875 37.294L147.886 155.509Z" fill="#F9AF23"/>
<path d="M58.097 58.3726C58.7609 61.4314 56.8242 64.4418 53.7724 65.1042C50.7206 65.7666 47.7032 63.8315 47.0393 60.7727C46.3769 57.7208 48.3205 54.7089 51.3724 54.0465C54.4242 53.3841 57.4346 55.3208 58.097 58.3726Z" fill="#F79326"/>
<path d="M95.576 50.238C96.2399 53.2968 94.2963 56.3087 91.2514 56.9696C88.1926 57.6335 85.1822 55.6968 84.5183 52.638C83.8559 49.5862 85.7926 46.5758 88.8514 45.9119C91.8962 45.251 94.9136 47.1861 95.576 50.238Z" fill="#F79326"/>
<path d="M89.7092 51.5112L84.8381 29.0684C82.6316 18.9026 72.6068 12.4474 62.441 14.6539C52.2752 16.8604 45.8285 26.8907 48.0349 37.0565L52.9061 59.4993" stroke="#141515" stroke-width="4.8742" stroke-miterlimit="10" stroke-linecap="round" stroke-linejoin="round"/>
</g>
</g>
</g>
<defs>
<clipPath id="clip0_4_63">
<rect width="116.962" height="164.134" fill="white" transform="translate(0.0400009 25.71) rotate(-12.246)"/>
</clipPath>
<clipPath id="clip1_4_63">
<rect width="116.962" height="164.134" fill="white" transform="translate(0.0400009 25.71) rotate(-12.246)"/>
</clipPath>
<clipPath id="clip2_4_63">
<rect width="116.93" height="164.13" fill="white" transform="translate(0.0594711 25.7058) rotate(-12.246)"/>
</clipPath>
</defs>
</svg>
