<svg width="63" height="47" viewBox="0 0 63 47" fill="none" xmlns="http://www.w3.org/2000/svg">
<g clip-path="url(#clip0_4_42)">
<g clip-path="url(#clip1_4_42)">
<g clip-path="url(#clip2_4_42)">
<path fill-rule="evenodd" clip-rule="evenodd" d="M34.487 14.6852L34.2119 13.945C24.6619 6.77917 21.7551 15.1734 22.8059 20.7704C23.166 24.3147 24.2634 27.7445 26.0277 30.8395C32.644 42.6916 48.5323 45.6807 45.486 31.5174L45.0826 30.2263L50.2339 23.5531C55.2475 26.8595 61.6641 27.3694 59.3772 17.2759C54.4002 5.51991 49.4459 2.82297 46.679 4.12476C44.6199 5.09752 43.9076 8.3659 44.5323 11.4456L34.487 14.6852Z" fill="#ED5F72"/>
<path fill-rule="evenodd" clip-rule="evenodd" d="M27.9717 33.6192L24.6294 28.1811L3.9268 43.5608L27.9717 33.6192Z" fill="#E6E6E6"/>
<path fill-rule="evenodd" clip-rule="evenodd" d="M51.026 23.6564C48.4797 26.9625 45.7761 30.2069 43.3193 33.571C43.266 33.6504 43.1972 33.7183 43.1171 33.7706C43.0369 33.823 42.9471 33.8587 42.8529 33.8757C42.7588 33.8926 42.6621 33.8905 42.5688 33.8694C42.4754 33.8483 42.3873 33.8087 42.3095 33.7529C42.1505 33.6377 42.0427 33.465 42.0091 33.2715C41.9755 33.078 42.0188 32.8791 42.1297 32.7171C44.5991 29.3345 47.3128 26.0769 49.8718 22.755C49.9281 22.6776 49.9995 22.6123 50.0817 22.5631C50.1638 22.514 50.255 22.4818 50.3499 22.4687C50.4447 22.4556 50.5412 22.4618 50.6336 22.4868C50.726 22.5119 50.8124 22.5553 50.8876 22.6145C51.0398 22.7362 51.1392 22.9119 51.1649 23.1051C51.1907 23.2982 51.1409 23.4939 51.0259 23.6512" fill="#540C2C"/>
<path fill-rule="evenodd" clip-rule="evenodd" d="M44.6438 12.4439C40.1376 13.8361 35.6164 15.0103 31.1386 16.5214C28.3467 21.4101 36.5952 35.04 42.3822 32.4858C42.4667 32.4403 42.5594 32.4122 42.6549 32.4032C42.7504 32.3942 42.8467 32.4045 42.9382 32.4334C43.0296 32.4623 43.1144 32.5092 43.1874 32.5714C43.2604 32.6336 43.3201 32.7099 43.3631 32.7956C43.4538 32.9693 43.473 33.1714 43.4166 33.359C43.3603 33.5466 43.2329 33.7048 43.0616 33.7998C35.2863 37.2291 26.0839 20.69 30.0923 15.4384C30.5606 14.8285 42.3837 11.599 44.2044 11.0418C44.2959 11.0126 44.3923 11.002 44.488 11.0106C44.5837 11.0192 44.6767 11.0467 44.7616 11.0917C44.8465 11.1367 44.9216 11.1981 44.9825 11.2724C45.0433 11.3468 45.0888 11.4325 45.1161 11.5246C45.1753 11.7109 45.159 11.9129 45.0707 12.0873C44.9824 12.2616 44.8292 12.3943 44.6441 12.4569" fill="#540C2C"/>
<path fill-rule="evenodd" clip-rule="evenodd" d="M45.7435 3.74903C45.7958 3.69851 45.8553 3.65611 45.9202 3.62325C45.9688 3.5968 46.0209 3.57736 46.0749 3.56549C53.8366 0.61199 60.5805 14.7511 60.5512 21.0278C60.5338 24.7315 58.0791 27.1859 54.5045 26.4928C47.8979 25.2125 39.4194 8.36477 45.7435 3.74903ZM46.5712 4.95084C42.2641 7.81243 47.5394 18.5253 49.9714 21.5315C51.7473 23.7221 55.8144 27.0064 58.3788 23.8195C61.042 20.5057 56.3259 11.325 54.0875 8.50723C52.2198 6.15216 49.6611 3.68398 46.5712 4.95084Z" fill="#540C2C"/>
<path fill-rule="evenodd" clip-rule="evenodd" d="M33.7913 14.8503C30.3253 10.5972 23.3323 10.3618 23.3135 17.2776C23.2875 26.1141 27.4715 34.6976 35.3291 38.8005C41.035 41.7783 46.3 39.8741 44.9182 32.7142C44.825 32.0449 44.6053 31.3994 44.2709 30.8122C44.1518 30.6568 44.0978 30.4611 44.1205 30.2666C44.1432 30.0721 44.2407 29.8941 44.3924 29.7702C44.4668 29.71 44.5526 29.6655 44.6447 29.6391C44.7367 29.6128 44.8331 29.6052 44.9281 29.6168C45.0231 29.6284 45.1148 29.659 45.1978 29.7067C45.2808 29.7545 45.3533 29.8184 45.4111 29.8948C47.0368 33.1228 47.3228 38.3042 43.9915 40.5947C38.0977 44.6507 29.0543 36.9754 25.8471 31.9087C23.2547 27.804 19.7617 16.5581 23.3832 12.3332C26.5251 8.66657 32.1562 10.5362 34.9717 13.9892C35.0867 14.1502 35.1335 14.35 35.102 14.5453C35.0705 14.7406 34.9632 14.9156 34.8034 15.0322C34.726 15.0884 34.638 15.1285 34.5448 15.1502C34.4517 15.1719 34.3551 15.1747 34.2608 15.1584C34.1665 15.1422 34.0764 15.1073 33.9958 15.0557C33.9152 15.0041 33.8457 14.9369 33.7915 14.8581" fill="#540C2C"/>
<path fill-rule="evenodd" clip-rule="evenodd" d="M24.7462 29.4339C19.1936 33.6517 12.9701 37.4728 7.34152 41.661C14.0368 38.6645 20.7323 35.6809 27.428 32.7104C27.516 32.6721 27.6108 32.6517 27.7068 32.6506C27.8027 32.6494 27.8979 32.6674 27.9868 32.7036C28.0757 32.7398 28.1565 32.7934 28.2243 32.8613C28.2922 32.9291 28.3458 33.0099 28.382 33.0988C28.4585 33.2787 28.4616 33.4814 28.3905 33.6635C28.3195 33.8457 28.18 33.9928 28.0019 34.0733C20.5782 37.3725 13.1574 40.6819 5.73946 44.0017C5.14733 44.2738 1.60526 46.4257 1.72629 44.6041C1.72378 44.482 1.89095 44.2706 2.16583 43.9895L2.20702 43.9705C5.1855 40.9517 21.4666 30.0732 23.8617 28.2541C23.9369 28.195 24.0232 28.1516 24.1155 28.1265C24.2078 28.1013 24.3042 28.095 24.399 28.1079C24.4938 28.1207 24.585 28.1524 24.6673 28.2012C24.7496 28.2499 24.8213 28.3147 24.8781 28.3917C24.9961 28.5484 25.0483 28.7449 25.0237 28.9396C24.9991 29.1342 24.8995 29.3115 24.7462 29.4339Z" fill="#540C2C"/>
</g>
</g>
</g>
<defs>
<clipPath id="clip0_4_42">
<rect width="60.6027" height="44.9594" fill="white" transform="translate(0.600002 1.70001) rotate(-1.17925)"/>
</clipPath>
<clipPath id="clip1_4_42">
<rect width="60.6027" height="44.9594" fill="white" transform="translate(0.600002 1.70001) rotate(-1.17925)"/>
</clipPath>
<clipPath id="clip2_4_42">
<rect width="60.4357" height="44.95" fill="white" transform="translate(0.687153 1.69824) rotate(-1.17925)"/>
</clipPath>
</defs>
</svg>
