<svg width="156" height="609" viewBox="0 0 156 609" fill="none" xmlns="http://www.w3.org/2000/svg">
<g filter="url(#filter0_d_4_32)">
<mask id="mask0_4_32" style="mask-type:luminance" maskUnits="userSpaceOnUse" x="2" y="37" width="51" height="208">
<path d="M2.70745 39.6298L12.1848 244.05L51.9051 242.209L42.4278 37.7882L2.70745 39.6298Z" fill="white" stroke="white"/>
<path d="M39.3304 41.1179C40.389 41.7686 40.7197 43.1543 40.069 44.2129C39.4183 45.2716 38.0326 45.6023 36.9739 44.9516C35.9153 44.3008 35.5846 42.9151 36.2353 41.8565C36.886 40.7978 38.2717 40.4671 39.3304 41.1179Z" fill="black" stroke="black" stroke-width="1.5" stroke-linejoin="round"/>
</mask>
<g mask="url(#mask0_4_32)">
<path d="M48.963 239.78C0.863351 175.682 -2.37347 109.505 39.2525 41.2474" stroke="white" stroke-width="2"/>
</g>
<path d="M39.1995 41.3309C40.611 42.1985 41.052 44.0461 40.1844 45.4576C39.3168 46.8692 37.4692 47.3101 36.0576 46.4425C34.6461 45.5749 34.2052 43.7273 35.0728 42.3157C35.9404 40.9042 37.788 40.4633 39.1995 41.3309Z" stroke="white" stroke-width="2" stroke-linecap="round" stroke-linejoin="round"/>
<path d="M46.4992 236.599C97.5345 298.769 103.509 365.004 64.4237 435.304" stroke="white" stroke-width="2"/>
</g>
<g clip-path="url(#clip0_4_32)">
<g clip-path="url(#clip1_4_32)">
<g clip-path="url(#clip2_4_32)">
<path fill-rule="evenodd" clip-rule="evenodd" d="M71.487 14.6852L71.2119 13.945C61.6619 6.77917 58.7551 15.1734 59.8059 20.7704C60.166 24.3147 61.2634 27.7445 63.0277 30.8395C69.644 42.6916 85.5323 45.6807 82.486 31.5174L82.0826 30.2263L87.2339 23.5531C92.2475 26.8595 98.6641 27.3694 96.3772 17.2759C91.4002 5.51991 86.4459 2.82297 83.679 4.12476C81.6199 5.09752 80.9076 8.3659 81.5323 11.4456L71.487 14.6852Z" fill="#ED5F72"/>
<path fill-rule="evenodd" clip-rule="evenodd" d="M64.9717 33.6192L61.6294 28.1811L40.9268 43.5608L64.9717 33.6192Z" fill="#E6E6E6"/>
<path fill-rule="evenodd" clip-rule="evenodd" d="M88.026 23.6564C85.4797 26.9625 82.7761 30.2069 80.3193 33.571C80.266 33.6504 80.1972 33.7183 80.1171 33.7706C80.0369 33.823 79.9471 33.8587 79.8529 33.8757C79.7588 33.8926 79.6621 33.8905 79.5688 33.8694C79.4754 33.8483 79.3873 33.8087 79.3095 33.7529C79.1505 33.6377 79.0427 33.465 79.0091 33.2715C78.9755 33.078 79.0188 32.8791 79.1297 32.7171C81.5991 29.3345 84.3128 26.0769 86.8718 22.755C86.9281 22.6776 86.9995 22.6123 87.0817 22.5631C87.1638 22.514 87.255 22.4818 87.3499 22.4687C87.4447 22.4556 87.5412 22.4618 87.6336 22.4868C87.726 22.5119 87.8124 22.5553 87.8876 22.6145C88.0398 22.7362 88.1392 22.9119 88.1649 23.1051C88.1907 23.2982 88.1409 23.4939 88.0259 23.6512" fill="#540C2C"/>
<path fill-rule="evenodd" clip-rule="evenodd" d="M81.6438 12.4439C77.1376 13.8361 72.6164 15.0103 68.1386 16.5214C65.3467 21.4101 73.5952 35.04 79.3822 32.4858C79.4667 32.4403 79.5594 32.4122 79.6549 32.4032C79.7504 32.3942 79.8467 32.4045 79.9382 32.4334C80.0296 32.4623 80.1144 32.5092 80.1874 32.5714C80.2604 32.6336 80.3201 32.7099 80.3631 32.7956C80.4538 32.9693 80.473 33.1714 80.4166 33.359C80.3603 33.5466 80.2329 33.7048 80.0616 33.7998C72.2863 37.2291 63.0839 20.69 67.0923 15.4384C67.5606 14.8285 79.3837 11.599 81.2044 11.0418C81.2959 11.0126 81.3923 11.002 81.488 11.0106C81.5837 11.0192 81.6767 11.0467 81.7616 11.0917C81.8465 11.1367 81.9216 11.1981 81.9825 11.2724C82.0433 11.3468 82.0888 11.4325 82.1161 11.5246C82.1753 11.7109 82.159 11.9129 82.0707 12.0873C81.9824 12.2616 81.8292 12.3943 81.6441 12.4569" fill="#540C2C"/>
<path fill-rule="evenodd" clip-rule="evenodd" d="M82.7435 3.74903C82.7958 3.69851 82.8553 3.65611 82.9202 3.62325C82.9688 3.5968 83.0209 3.57736 83.0749 3.56549C90.8366 0.61199 97.5805 14.7511 97.5512 21.0278C97.5338 24.7315 95.0791 27.1859 91.5045 26.4928C84.8979 25.2125 76.4194 8.36477 82.7435 3.74903ZM83.5712 4.95084C79.2641 7.81243 84.5394 18.5253 86.9714 21.5315C88.7473 23.7221 92.8144 27.0064 95.3788 23.8195C98.042 20.5057 93.3259 11.325 91.0875 8.50723C89.2198 6.15216 86.6611 3.68398 83.5712 4.95084Z" fill="#540C2C"/>
<path fill-rule="evenodd" clip-rule="evenodd" d="M70.7913 14.8503C67.3253 10.5972 60.3323 10.3618 60.3135 17.2776C60.2875 26.1141 64.4715 34.6976 72.3291 38.8005C78.035 41.7783 83.3 39.8741 81.9182 32.7142C81.825 32.0449 81.6053 31.3994 81.2709 30.8122C81.1518 30.6568 81.0978 30.4611 81.1205 30.2666C81.1432 30.0721 81.2407 29.894 81.3924 29.7702C81.4668 29.71 81.5526 29.6655 81.6447 29.6391C81.7367 29.6128 81.8331 29.6052 81.9281 29.6168C82.0231 29.6284 82.1148 29.659 82.1978 29.7067C82.2808 29.7545 82.3533 29.8184 82.4111 29.8948C84.0368 33.1228 84.3228 38.3042 80.9915 40.5947C75.0977 44.6507 66.0543 36.9754 62.8471 31.9087C60.2547 27.804 56.7617 16.5581 60.3832 12.3332C63.5251 8.66657 69.1562 10.5362 71.9717 13.9892C72.0867 14.1502 72.1335 14.35 72.102 14.5453C72.0705 14.7406 71.9632 14.9156 71.8034 15.0322C71.726 15.0884 71.638 15.1285 71.5448 15.1502C71.4517 15.1719 71.3551 15.1747 71.2608 15.1584C71.1665 15.1422 71.0764 15.1073 70.9958 15.0557C70.9152 15.0041 70.8457 14.9369 70.7915 14.8581" fill="#540C2C"/>
<path fill-rule="evenodd" clip-rule="evenodd" d="M61.7462 29.4339C56.1936 33.6517 49.9701 37.4728 44.3415 41.661C51.0368 38.6645 57.7323 35.6809 64.428 32.7104C64.516 32.6721 64.6108 32.6517 64.7068 32.6506C64.8027 32.6494 64.8979 32.6674 64.9868 32.7036C65.0757 32.7398 65.1565 32.7934 65.2243 32.8613C65.2922 32.9291 65.3458 33.0099 65.382 33.0988C65.4585 33.2787 65.4616 33.4814 65.3905 33.6635C65.3195 33.8457 65.18 33.9928 65.0019 34.0733C57.5782 37.3725 50.1574 40.6819 42.7395 44.0017C42.1473 44.2738 38.6053 46.4257 38.7263 44.6041C38.7238 44.482 38.8909 44.2706 39.1658 43.9895L39.207 43.9705C42.1855 40.9517 58.4666 30.0732 60.8617 28.2541C60.9369 28.195 61.0232 28.1516 61.1155 28.1265C61.2078 28.1013 61.3042 28.095 61.399 28.1079C61.4938 28.1207 61.585 28.1524 61.6673 28.2012C61.7496 28.2499 61.8213 28.3147 61.8781 28.3917C61.9961 28.5484 62.0483 28.7449 62.0237 28.9396C61.9991 29.1342 61.8995 29.3115 61.7462 29.4339Z" fill="#540C2C"/>
</g>
</g>
</g>
<g clip-path="url(#clip3_4_32)">
<g clip-path="url(#clip4_4_32)">
<g clip-path="url(#clip5_4_32)">
<path d="M85.1323 475.807L80.2612 453.364C78.0547 443.198 68.0299 436.743 57.8641 438.95C47.6983 441.156 41.2516 451.186 43.458 461.352L48.3292 483.795" stroke="#100F0F" stroke-width="4.8742" stroke-miterlimit="10" stroke-linecap="round" stroke-linejoin="round"/>
<path d="M144.424 579.563C145.113 582.74 143.071 585.905 139.887 586.596L46.653 606.832C43.4758 607.522 40.3058 605.488 39.6162 602.311L24.2888 479.39C23.5992 476.212 25.6395 473.041 28.8167 472.351L100.368 456.821C103.552 456.13 106.716 458.172 107.406 461.349L144.424 579.563Z" fill="#F79326"/>
<path d="M153.886 577.509C154.575 580.686 152.534 583.851 149.356 584.541L56.1151 604.778C52.9379 605.468 49.7679 603.435 49.0783 600.257L33.7578 477.334C33.0682 474.157 35.1015 470.987 38.2858 470.296L109.837 454.766C113.014 454.076 116.185 456.117 116.875 459.294L153.886 577.509Z" fill="#F9AF23"/>
<path d="M64.097 480.373C64.7609 483.431 62.8242 486.442 59.7724 487.104C56.7206 487.767 53.7032 485.831 53.0393 482.773C52.3769 479.721 54.3205 476.709 57.3724 476.047C60.4242 475.384 63.4346 477.321 64.097 480.373Z" fill="#F79326"/>
<path d="M101.576 472.238C102.24 475.297 100.296 478.309 97.2514 478.97C94.1926 479.633 91.1822 477.697 90.5183 474.638C89.8559 471.586 91.7926 468.576 94.8514 467.912C97.8962 467.251 100.914 469.186 101.576 472.238Z" fill="#F79326"/>
<path d="M95.7092 473.511L90.8381 451.068C88.6316 440.903 78.6068 434.447 68.441 436.654C58.2752 438.86 51.8285 448.891 54.0349 459.056L58.9061 481.499" stroke="#141515" stroke-width="4.8742" stroke-miterlimit="10" stroke-linecap="round" stroke-linejoin="round"/>
</g>
</g>
</g>
<defs>
<filter id="filter0_d_4_32" x="0.79863" y="39.8861" width="102.466" height="404.036" filterUnits="userSpaceOnUse" color-interpolation-filters="sRGB">
<feFlood flood-opacity="0" result="BackgroundImageFix"/>
<feColorMatrix in="SourceAlpha" type="matrix" values="0 0 0 0 0 0 0 0 0 0 0 0 0 0 0 0 0 0 127 0" result="hardAlpha"/>
<feOffset dy="4"/>
<feGaussianBlur stdDeviation="2"/>
<feComposite in2="hardAlpha" operator="out"/>
<feColorMatrix type="matrix" values="0 0 0 0 0 0 0 0 0 0 0 0 0 0 0 0 0 0 0.25 0"/>
<feBlend mode="normal" in2="BackgroundImageFix" result="effect1_dropShadow_4_32"/>
<feBlend mode="normal" in="SourceGraphic" in2="effect1_dropShadow_4_32" result="shape"/>
</filter>
<clipPath id="clip0_4_32">
<rect width="60.6027" height="44.9594" fill="white" transform="translate(37.6 1.70001) rotate(-1.17925)"/>
</clipPath>
<clipPath id="clip1_4_32">
<rect width="60.6027" height="44.9594" fill="white" transform="translate(37.6 1.70001) rotate(-1.17925)"/>
</clipPath>
<clipPath id="clip2_4_32">
<rect width="60.4357" height="44.95" fill="white" transform="translate(37.6872 1.69824) rotate(-1.17925)"/>
</clipPath>
<clipPath id="clip3_4_32">
<rect width="116.962" height="164.134" fill="white" transform="translate(6.04 447.71) rotate(-12.246)"/>
</clipPath>
<clipPath id="clip4_4_32">
<rect width="116.962" height="164.134" fill="white" transform="translate(6.04 447.71) rotate(-12.246)"/>
</clipPath>
<clipPath id="clip5_4_32">
<rect width="116.93" height="164.13" fill="white" transform="translate(6.05947 447.706) rotate(-12.246)"/>
</clipPath>
</defs>
</svg>
